<svg id="Layer_1" data-name="Layer 1" xmlns="http://www.w3.org/2000/svg" xmlns:xlink="http://www.w3.org/1999/xlink" viewBox="0 0 128 128"><defs><style>.cls-1{fill:url(#linear-gradient);}</style><linearGradient id="linear-gradient" x1="1.99" y1="60.63" x2="126.01" y2="60.63" gradientUnits="userSpaceOnUse"><stop offset="0" stop-color="#0029ff"/><stop offset="0.03" stop-color="#0029ff"/><stop offset="1" stop-color="#42c2a7"/></linearGradient></defs><path class="cls-1" d="M103.3,56a22.6,22.6,0,0,0-10.53,2.6l-1.22.81v-.12L54.25,80.31v-.16l0,0a22.72,22.72,0,1,1,4.39-35.75l15.92-9.12a40.69,40.69,0,1,0-31.85,66l1.06,0v0h57a23.35,23.35,0,0,0,2.52.16,22.72,22.72,0,0,0,0-45.44Zm3.28,34.11a10.73,10.73,0,0,1-2,.29c-.41,0-.82.06-1.24.06a12.48,12.48,0,0,1-1.38-.08c-8.68-.48-23.23-4.44-23.23-4.44s8.9-9.7,15.91-15.09A11.67,11.67,0,0,1,108.17,68l.21.11.62.31a11.74,11.74,0,0,1-2.42,21.65Z"/></svg>